<svg version="1.0" xmlns="http://www.w3.org/2000/svg" width="300" height="300" viewBox="0 0 271.000000 300.000000" preserveAspectRatio="xMidYMid " class="svg" style="width: 256px; height: 256px;">
<metadata>
  <rdf:rdf xmlns:rdf="http://www.w3.org/1999/02/22-rdf-syntax-ns#" xmlns:rdfs="http://www.w3.org/2000/01/rdf-schema#" xmlns:dc="http://purl.org/dc/elements/1.1/">
    <rdf:description dc:title="Jerry happy" dc:publisher="Hiox" dc:date="2015-05-19" dc:format="image/svg+xml" dc:language="en">
      <dc:creator>
        <rdf:bag>
          <rdf:li>svgimages.com</rdf:li>
        </rdf:bag>
      </dc:creator>
    </rdf:description>
  </rdf:rdf>
</metadata>
<g transform="translate(0.000000,300.000000) scale(0.100000,-0.100000)" fill="#363636" stroke="none">
<path d="M1081 2983 c-92 -45 -167 -164 -178 -283 -5 -57 -11 -71 -47 -115
-96 -116 -172 -251 -196 -348 -15 -56 -29 -59 -109 -22 -113 53 -252 69 -350
39 -226 -67 -270 -426 -90 -736 128 -220 347 -332 585 -299 48 7 103 19 121
26 30 13 35 12 40 0 3 -9 -6 -30 -19 -48 -39 -51 -81 -127 -71 -127 6 0 34 34
63 75 l54 76 24 -33 c39 -52 185 -191 230 -218 47 -28 52 -51 26 -106 -20 -41
-68 -84 -95 -84 -10 0 -56 29 -102 65 -45 36 -111 79 -146 96 l-63 30 -207 -3
c-137 -1 -219 2 -246 10 -71 20 -130 67 -189 146 -31 42 -59 76 -62 76 -5 0
52 -106 92 -172 30 -48 114 -119 161 -137 25 -9 102 -16 228 -20 182 -6 193
-8 247 -34 38 -19 74 -48 109 -88 l52 -60 -19 -38 c-18 -37 -20 -38 -93 -50
-101 -15 -204 -66 -274 -136 -70 -68 -97 -119 -97 -183 0 -50 12 -72 41 -72
10 0 21 -10 24 -22 12 -37 56 -78 85 -78 15 0 44 11 64 25 44 30 46 30 47 8 0
-10 10 -38 22 -62 36 -72 112 -98 209 -71 44 13 170 84 252 144 57 41 62 42
103 34 51 -11 132 3 189 34 52 27 125 89 270 229 40 38 76 69 81 69 5 0 14
-38 20 -85 19 -135 53 -183 138 -193 101 -11 215 110 336 355 22 45 37 65 55
69 13 3 24 9 24 13 0 3 13 12 30 19 33 15 70 68 70 102 0 12 -7 37 -16 56 -13
28 -26 37 -61 47 -31 8 -48 19 -54 33 -12 34 -58 72 -95 78 -42 8 -138 -25
-174 -59 l-26 -25 -17 29 c-23 39 -70 58 -110 43 -16 -6 -33 -9 -37 -7 -4 2
-8 32 -9 67 -1 34 -3 64 -5 66 -2 2 18 32 44 67 72 95 199 321 248 443 20 48
32 39 32 -23 0 -44 4 -56 20 -65 29 -16 88 5 102 36 9 18 15 21 29 14 47 -26
124 5 131 51 2 14 15 25 38 33 20 6 41 23 50 39 14 25 13 30 -2 58 -10 17 -18
45 -18 64 0 55 -20 62 -101 35 -61 -20 -83 -22 -155 -16 -83 6 -86 5 -157 -30
-39 -20 -112 -64 -162 -98 -124 -86 -116 -82 -103 -44 6 18 15 38 20 44 31 40
49 269 27 334 -11 30 -10 34 17 56 42 34 337 179 424 208 41 14 120 36 175 51
97 25 141 45 99 45 -29 0 -163 -36 -269 -72 -108 -37 -281 -118 -389 -182
l-79 -47 -28 33 c-16 18 -28 36 -29 40 0 3 35 43 78 89 80 85 251 230 353 300
65 44 81 72 21 39 -88 -49 -226 -162 -351 -287 -119 -119 -137 -133 -168 -133
-19 0 -43 -5 -53 -10 -16 -9 -22 -5 -36 17 -86 143 -166 235 -243 283 -23 15
-43 35 -46 50 -8 34 -31 63 -44 55 -7 -4 -5 -14 5 -30 29 -44 10 -50 -34 -10
-43 38 -71 42 -37 5 18 -20 18 -20 -26 -20 -73 0 -86 8 -103 55 l-14 44 31 15
c45 21 184 56 226 57 29 0 32 2 16 9 -33 14 -149 11 -221 -5 -36 -9 -67 -15
-69 -13 -7 9 -35 190 -35 230 0 26 -4 49 -8 52 -4 2 -23 -3 -41 -11z m22 -65
c3 -24 9 -61 13 -84 6 -40 5 -42 -32 -64 -22 -13 -65 -43 -97 -67 -31 -24 -59
-43 -60 -43 -12 0 15 116 38 163 22 49 104 137 126 137 4 0 9 -19 12 -42z m27
-167 c0 -11 3 -26 6 -35 4 -10 -7 -21 -37 -37 -45 -23 -84 -48 -132 -86 -31
-25 -47 -29 -47 -13 0 16 180 190 196 190 8 0 14 -9 14 -19z m20 -85 c0 -2
-21 -17 -47 -32 -72 -41 -170 -123 -240 -198 -64 -68 -80 -96 -43 -76 18 10
20 8 20 -30 0 -45 26 -104 59 -134 25 -23 27 -9 6 41 -23 54 -19 106 10 141
34 40 57 45 88 16 26 -24 54 -90 43 -101 -3 -4 -19 5 -34 20 -15 14 -40 28
-57 32 l-30 6 32 -16 c55 -29 83 -61 83 -95 0 -44 40 -126 94 -193 l47 -57
-36 0 c-38 0 -129 -23 -155 -40 -30 -19 0 -21 52 -4 72 24 173 22 202 -4 11
-10 35 -27 53 -37 32 -18 32 -19 17 -54 -8 -19 -16 -36 -17 -37 -1 -2 -70 -14
-152 -29 -83 -14 -164 -30 -182 -36 -23 -7 -37 -7 -51 2 -17 11 -26 9 -59 -12
-44 -28 -89 -49 -106 -49 -7 0 -23 16 -36 35 l-24 36 22 22 c70 76 -31 246
-202 341 -98 55 -174 76 -274 77 -83 1 -86 1 -58 14 100 46 201 40 358 -21 78
-30 100 -34 179 -34 57 0 87 4 83 10 -3 6 -33 10 -66 10 -32 0 -59 2 -59 3 0
2 9 30 20 63 27 80 94 211 131 254 25 30 23 23 -17 -53 -25 -48 -44 -90 -42
-93 3 -2 22 16 43 42 89 108 200 204 290 252 39 21 55 26 55 18z m13 -43 c2
-5 7 -20 10 -34 6 -25 3 -27 -56 -43 -34 -10 -84 -28 -110 -42 -27 -13 -53
-24 -58 -24 -23 0 174 149 198 150 6 0 14 -3 16 -7z m-277 -101 c-18 -16 -18
-16 -6 6 6 13 14 21 18 18 3 -4 -2 -14 -12 -24z m367 -12 c-7 -25 9 -26 31 -1
27 30 78 14 92 -29 8 -24 9 -41 2 -54 -38 -70 94 -303 207 -364 20 -11 20 -11
0 -12 -27 0 -96 -36 -117 -62 -18 -20 -18 -20 -28 9 -27 75 -94 168 -164 228
-63 53 -157 99 -186 90 -15 -5 -22 0 -29 17 -5 13 -23 42 -39 64 -25 34 -35
41 -56 37 -38 -8 -32 4 17 29 86 47 151 67 214 67 56 1 61 -1 56 -19z m167
-36 c0 -14 -4 -23 -10 -19 -5 3 -10 15 -10 26 0 10 5 19 10 19 6 0 10 -12 10
-26z m81 -19 c59 -44 143 -150 196 -247 28 -52 28 -52 90 -27 45 18 49 8 16
-40 -21 -31 -33 -40 -48 -36 -11 3 -34 5 -52 5 -27 0 -32 4 -38 31 -9 42 -41
112 -71 157 -34 50 -112 130 -135 137 -21 7 -26 45 -6 45 7 0 29 -11 48 -25z
m-30 -58 c94 -63 208 -293 156 -313 -26 -10 -83 32 -133 99 -59 79 -61 85 -35
103 33 24 28 66 -14 103 -41 36 -24 42 26 8z m-295 -133 c67 -36 183 -157 217
-224 31 -63 36 -124 11 -134 -48 -18 -146 42 -242 150 l-53 59 26 18 c37 27
32 60 -16 112 -40 44 -41 45 -17 45 14 0 47 -12 74 -26z m-866 -95 c169 -27
373 -182 395 -300 5 -27 2 -41 -16 -62 l-21 -28 -20 20 c-26 28 -50 26 -70 -6
-14 -24 -21 -27 -67 -24 -28 1 -51 -1 -51 -6 0 -22 36 -55 86 -79 29 -14 54
-30 54 -35 0 -20 -49 -33 -75 -21 -55 25 -105 1 -105 -50 0 -31 59 -87 111
-105 27 -10 49 -23 49 -30 0 -16 -32 -33 -62 -33 -65 0 -78 -68 -17 -89 46
-16 67 -14 117 10 27 14 47 18 51 12 14 -23 88 -50 134 -48 28 1 46 -3 44 -9
-10 -31 -252 -57 -347 -37 -239 50 -433 290 -469 581 -13 104 0 206 36 277 23
46 31 53 62 59 20 3 41 7 46 9 20 7 71 5 135 -6z m1572 -16 c30 -35 28 -41
-22 -78 -49 -36 -52 -37 -65 -19 -14 19 -12 23 48 102 13 16 21 15 39 -5z
m-136 -68 c4 -8 1 -22 -5 -29 -9 -10 -9 -16 -1 -21 6 -4 17 1 24 10 12 17 13
17 20 0 5 -13 -3 -26 -26 -46 -29 -25 -30 -28 -12 -29 11 0 25 5 32 12 6 6 14
9 17 7 5 -6 -24 -101 -34 -109 -4 -3 -15 -18 -25 -33 -9 -16 -33 -35 -53 -43
-19 -9 -47 -29 -61 -46 -32 -38 -78 -58 -132 -58 -46 0 -52 11 -15 28 24 11
34 32 16 32 -6 0 -26 -9 -45 -21 -28 -16 -38 -18 -54 -8 -21 13 -46 48 -39 55
2 3 43 8 91 11 56 4 85 10 83 17 -3 7 -35 10 -96 7 l-93 -3 4 28 c3 26 8 30
46 35 44 6 62 20 62 50 0 20 58 75 93 88 44 17 52 13 23 -10 -49 -39 -26 -89
41 -89 16 0 34 -5 41 -12 15 -15 35 2 57 48 23 50 12 93 -26 101 -24 5 -27 8
-18 24 12 24 77 27 85 4z m194 -41 c26 -77 -12 -270 -77 -393 -24 -46 -43 -85
-41 -86 2 -2 56 37 121 86 65 49 155 110 200 136 l82 47 120 1 c93 0 128 4
154 18 19 9 43 17 54 17 17 0 19 -5 13 -32 -10 -51 -36 -69 -123 -87 -43 -9
-79 -20 -80 -26 -1 -5 -4 -34 -8 -63 -7 -60 -34 -95 -68 -90 -19 3 -22 8 -19
46 2 25 -2 50 -10 59 -7 8 -11 30 -10 47 2 30 2 30 -12 11 -9 -11 -20 -25 -26
-32 -5 -7 -10 -14 -10 -17 0 -3 -22 -52 -49 -108 -65 -137 -153 -290 -204
-356 -39 -52 -41 -53 -50 -30 -4 12 -5 43 -2 68 4 28 1 57 -6 75 l-13 30 -4
-40 -4 -40 -16 34 c-10 19 -23 36 -30 39 -11 3 -11 -2 1 -24 22 -44 31 -78 18
-70 -19 12 -49 -17 -61 -60 l-12 -43 -33 35 c-30 31 -35 33 -58 23 -21 -9 -47
-51 -62 -99 -1 -3 -7 -17 -13 -31 -6 -15 -14 -43 -17 -63 -4 -20 -11 -36 -16
-36 -5 0 -9 -4 -9 -9 0 -5 -7 -24 -15 -42 -39 -85 -109 -185 -232 -331 -51
-60 -96 -120 -99 -134 -13 -50 1 -133 27 -160 30 -33 94 -64 131 -64 38 0 133
44 187 87 131 103 266 286 308 417 9 28 20 56 24 61 4 6 11 35 15 65 12 93 83
132 139 75 30 -29 31 -48 6 -83 -32 -46 -73 -134 -97 -208 -24 -77 -49 -222
-40 -232 13 -12 24 16 35 90 28 200 139 403 242 448 57 24 101 26 134 4 35
-23 31 -30 -15 -32 -111 -7 -208 -93 -281 -248 -54 -115 -72 -197 -67 -322 2
-56 0 -102 -3 -102 -14 0 -59 62 -59 80 0 10 -4 22 -10 25 -5 3 -10 16 -10 28
0 12 -3 50 -6 84 -5 48 -2 77 15 133 12 40 20 74 18 76 -10 10 -31 -31 -46
-91 -15 -58 -23 -71 -67 -106 -27 -23 -85 -76 -129 -120 -106 -104 -166 -145
-248 -170 -55 -16 -75 -18 -99 -10 -17 6 -34 8 -39 5 -5 -3 -9 0 -9 5 0 19
-18 12 -70 -27 -150 -113 -288 -171 -361 -152 -92 25 -122 144 -75 299 26 85
33 137 17 127 -4 -3 -16 -34 -25 -68 -10 -35 -24 -81 -31 -103 -7 -22 -16 -53
-20 -68 -15 -69 -105 -104 -139 -55 -25 35 -20 46 32 73 26 13 56 31 66 40 36
28 10 25 -50 -5 -84 -42 -110 -46 -124 -20 -40 74 65 214 213 286 63 30 170
54 183 41 3 -3 -1 -18 -9 -34 -26 -49 -38 -140 -26 -189 16 -64 31 -55 24 14
-8 74 6 133 57 238 43 88 88 137 137 148 62 13 131 87 131 141 0 26 16 17 33
-20 22 -47 42 -46 22 1 -20 48 -20 49 16 24 32 -23 53 -20 28 4 -8 8 -41 29
-74 47 -33 17 -81 47 -107 66 -46 33 -218 210 -218 224 0 3 27 35 60 71 l60
66 63 -23 c35 -12 87 -25 116 -28 71 -8 137 -42 194 -100 52 -53 58 -53 25 2
-20 32 -20 34 -2 20 31 -27 93 -42 150 -37 79 7 108 38 131 139 13 57 23 81
38 89 64 35 130 266 123 432 -2 63 -7 81 -26 100 -12 14 -22 27 -22 31 0 10
92 77 106 77 7 0 18 -16 24 -36z m-289 -44 c-24 -21 -41 -26 -41 -12 0 15 24
32 45 32 19 -1 19 -1 -4 -20z m187 -129 c5 -110 -16 -234 -60 -353 -5 -14 -20
-36 -34 -49 l-24 -22 0 38 c0 69 -18 24 -29 -72 -15 -140 -53 -193 -138 -193
-45 0 -141 40 -156 66 -4 8 -17 19 -28 25 -19 9 -19 9 -10 -10 16 -29 13 -36
-7 -18 -10 10 -45 28 -78 41 -44 18 -67 35 -92 67 -18 24 -36 49 -40 54 -23
29 -20 36 48 91 39 31 72 55 74 53 1 -2 18 -38 38 -79 54 -116 159 -209 236
-210 74 0 126 89 136 235 7 103 31 195 76 293 17 37 39 84 48 104 24 51 36 33
40 -61z m-1196 -85 c28 -29 57 -65 67 -84 10 -19 6 -22 -40 -37 -28 -9 -52
-15 -53 -14 -13 15 -36 72 -36 89 0 50 34 75 62 46z m648 -13 c-1 -5 -37 -25
-80 -46 -94 -45 -130 -87 -129 -152 0 -22 4 -49 9 -60 6 -16 -1 -29 -33 -62
-23 -24 -47 -43 -54 -43 -21 0 -63 42 -63 64 0 11 -5 45 -11 75 -7 33 -9 79
-5 113 l7 57 52 11 c199 43 307 58 307 43z m1298 -20 c4 -25 -12 -38 -62 -51
-31 -9 -46 -8 -80 6 l-41 16 55 8 c30 5 66 17 80 28 30 22 44 21 48 -7z
m-2028 -17 c0 -2 3 -12 6 -21 6 -16 5 -16 -25 -1 -38 20 -39 26 -6 26 14 0 25
-2 25 -4z m337 -2 c-3 -3 -12 -4 -19 -1 -8 3 -5 6 6 6 11 1 17 -2 13 -5z m363
-58 c0 -53 -1 -55 -47 -89 -27 -19 -59 -47 -73 -62 -22 -24 -25 -24 -31 -8 -4
10 -8 37 -8 60 -1 49 28 89 94 128 60 35 65 33 65 -29z m1203 4 c34 -12 35
-34 3 -56 -21 -13 -29 -14 -53 -2 -30 14 -50 56 -40 82 6 14 9 14 34 1 15 -9
40 -20 56 -25z m-1553 4 c-15 -38 -12 -115 5 -148 8 -15 15 -46 15 -67 0 -33
5 -41 30 -54 37 -19 37 -25 3 -61 -16 -16 -40 -45 -55 -64 -25 -31 -28 -33
-34 -15 -11 29 -23 35 -79 35 -37 0 -60 7 -87 25 -45 30 -57 31 -108 5 -51
-26 -69 -25 -105 4 -30 24 -30 25 -10 40 11 8 30 16 42 16 35 0 73 22 73 41 0
21 -11 29 -69 50 -27 9 -56 30 -74 51 -25 32 -27 38 -15 57 22 35 42 34 124
-9 84 -43 107 -42 86 5 -16 34 -16 34 11 44 70 26 75 24 107 -26 23 -37 30
-42 30 -25 0 12 6 40 12 62 10 32 19 41 48 49 57 15 61 14 50 -15z m-110 -18
c0 -8 -3 -22 -6 -31 -6 -14 -8 -13 -21 5 -8 11 -11 25 -8 30 9 15 35 12 35 -4z
m-156 -87 c-3 -5 -19 -2 -37 8 -29 15 -30 17 -12 23 21 8 59 -16 49 -31z m921
-56 c18 -27 25 -51 25 -86 0 -54 -22 -114 -44 -123 -34 -13 -131 55 -197 138
l-29 36 26 31 c30 36 59 40 74 10 11 -20 12 -20 35 5 37 40 78 35 110 -11z
m-411 -119 l38 -57 -47 6 c-26 4 -63 14 -82 24 l-36 17 36 33 c20 18 40 33 45
33 4 0 25 -25 46 -56z m702 -169 c25 -38 53 -153 54 -216 0 -53 -43 -252 -59
-274 -4 -5 -14 -26 -21 -45 -8 -19 -21 -46 -30 -60 -9 -14 -30 -45 -46 -70
-67 -104 -193 -227 -279 -270 -56 -28 -71 -32 -122 -28 -52 5 -60 9 -95 48
-34 38 -38 48 -37 94 0 59 5 67 130 217 137 166 233 322 245 401 4 21 10 38
15 38 5 0 9 8 9 17 0 10 12 42 27 71 32 64 56 66 93 9 24 -38 25 -38 33 -15
20 51 51 108 58 108 5 0 16 -11 25 -25z m-1591 -271 c36 -17 63 -19 270 -19
l230 -1 60 -33 c65 -36 98 -60 160 -114 l39 -34 -29 -26 c-17 -15 -33 -27 -36
-27 -3 0 -24 23 -48 52 -90 111 -142 129 -367 133 -190 2 -243 14 -305 67 -37
32 -35 32 26 2z m2100 -45 c4 -6 4 -26 0 -45 -5 -28 -13 -39 -40 -50 -19 -8
-46 -14 -60 -14 -14 0 -25 -4 -25 -10 0 -5 21 -10 46 -10 37 0 51 5 75 29 16
16 29 36 29 45 0 42 68 39 94 -6 31 -52 28 -76 -19 -124 -23 -24 -49 -44 -58
-44 -9 0 -17 -4 -17 -10 0 -5 -5 -9 -12 -7 -6 1 -32 -37 -57 -84 -121 -224
-214 -329 -295 -329 -21 0 -27 7 -35 38 -22 78 -22 99 -2 200 40 203 148 367
271 411 63 22 96 26 105 10z" id="node1" class="node"></path>
<path d="M733 1461 c7 -56 40 -91 84 -91 43 0 43 16 -1 24 -26 5 -38 15 -50
40 -9 19 -16 39 -16 44 0 6 -5 14 -12 18 -8 5 -9 -5 -5 -35z" id="node2" class="node"></path>
</g>
<g transform="translate(0.000000,300.000000) scale(0.100000,-0.100000)" fill="#FFFFFF" stroke="none">


<path d="M1038 2920 c-55 -47 -97 -128 -107 -207 -4 -29 -6 -53 -4 -53 1 0 29
19 60 43 32 24 75 54 97 67 37 22 38 24 32 64 -4 23 -10 60 -13 84 -3 23 -8
42 -12 42 -3 0 -27 -18 -53 -40z" id="node5" class="node"></path>
<path d="M1011 2680 c-85 -83 -105 -110 -82 -110 5 0 22 10 38 23 48 38 87 63
132 86 30 16 41 27 37 37 -3 9 -6 24 -6 35 0 36 -28 19 -119 -71z" id="node6" class="node"></path>
<path d="M1095 2648 c-90 -48 -201 -144 -290 -252 -21 -26 -40 -44 -43 -42 -2
3 17 45 42 93 40 76 42 83 17 53 -37 -43 -104 -174 -131 -254 -11 -33 -20 -61
-20 -63 0 -1 27 -3 59 -3 33 0 63 -4 66 -10 4 -6 -26 -10 -83 -10 -79 0 -101
4 -179 34 -157 61 -258 67 -358 21 -28 -13 -25 -13 58 -14 100 -1 176 -22 274
-77 171 -95 272 -265 202 -341 l-22 -22 24 -36 c13 -19 29 -35 36 -35 17 0 62
21 106 49 33 21 42 23 59 12 14 -9 28 -9 51 -2 18 6 99 22 182 36 82 15 151
27 152 29 1 1 9 18 17 37 15 35 15 36 -17 54 -18 10 -42 27 -53 37 -29 26
-130 28 -202 4 -52 -17 -82 -15 -52 4 26 17 117 40 155 40 l36 0 -47 57 c-54
67 -94 149 -94 193 0 34 -28 66 -83 95 l-32 16 30 -6 c17 -4 42 -18 57 -32 15
-15 31 -24 34 -20 11 11 -17 77 -43 101 -31 29 -54 24 -88 -16 -29 -35 -33
-87 -10 -141 21 -50 19 -64 -6 -41 -33 30 -59 89 -59 134 0 38 -2 40 -20 30
-37 -20 -21 8 43 76 70 75 168 157 240 198 69 41 63 52 -8 14z" id="node7" class="node"></path>
<path d="M1070 2583 c-78 -55 -134 -103 -121 -103 5 0 31 11 58 24 26 14 76
32 110 42 59 16 62 18 56 43 -12 54 -19 54 -103 -6z" id="node8" class="node"></path>
<path d="M880 2528 c-12 -22 -12 -22 6 -6 10 10 15 20 12 24 -4 3 -12 -5 -18
-18z" id="node9" class="node"></path>
<path d="M1080 2507 c-66 -27 -140 -65 -140 -73 0 -4 12 -4 26 -1 21 4 31 -3
56 -37 16 -22 34 -51 39 -64 7 -17 14 -22 29 -17 29 9 123 -37 186 -90 70 -60
137 -153 164 -228 10 -29 10 -29 28 -9 21 26 90 62 117 62 20 1 20 1 0 12
-113 61 -245 294 -207 364 7 13 6 30 -2 54 -14 43 -65 59 -92 29 -22 -25 -38
-24 -31 1 5 18 0 20 -56 19 -39 0 -82 -8 -117 -22z" id="node10" class="node"></path>
<path d="M1400 2481 c0 -11 5 -23 10 -26 6 -4 10 5 10 19 0 14 -4 26 -10 26
-5 0 -10 -9 -10 -19z" id="node11" class="node"></path>
<path d="M1440 2461 c0 -11 8 -22 19 -26 23 -7 101 -87 135 -137 30 -45 62
-115 71 -157 6 -27 11 -31 38 -31 18 0 41 -2 52 -5 15 -4 27 5 48 36 33 48 29
58 -16 40 -62 -25 -62 -25 -90 27 -53 97 -137 203 -196 247 -42 30 -61 32 -61
6z" id="node12" class="node"></path>
<path d="M1445 2389 c42 -37 47 -79 14 -103 -26 -18 -24 -24 35 -103 50 -67
107 -109 133 -99 52 20 -62 250 -156 313 -50 34 -67 28 -26 -8z" id="node13" class="node"></path>
<path d="M1119 2245 c48 -52 53 -85 16 -112 l-26 -18 53 -59 c96 -108 194
-168 242 -150 25 10 20 71 -11 134 -53 105 -221 250 -291 250 -24 0 -23 -1 17
-45z" id="node14" class="node"></path>
<path d="M175 2175 c-5 -2 -26 -6 -46 -9 -31 -6 -39 -13 -62 -59 -36 -71 -49
-173 -36 -277 36 -291 230 -531 469 -581 95 -20 337 6 347 37 2 6 -16 10 -44
9 -46 -2 -120 25 -134 48 -4 6 -24 2 -51 -12 -50 -24 -71 -26 -117 -10 -61 21
-48 89 17 89 30 0 62 17 62 33 0 7 -22 20 -49 30 -52 18 -111 74 -111 105 0
51 50 75 105 50 26 -12 75 1 75 21 0 5 -25 21 -54 35 -50 24 -86 57 -86 79 0
5 23 7 51 6 46 -3 53 0 67 24 20 32 44 34 70 6 l20 -20 21 28 c18 21 21 35 16
62 -22 118 -226 273 -395 300 -64 11 -115 13 -135 6z" id="node15" class="node"></path>
<path d="M1843 2158 c-60 -79 -62 -83 -48 -102 13 -18 16 -17 65 19 50 37 52
43 22 78 -18 20 -26 21 -39 5z" id="node16" class="node"></path>
<path d="M1661 2081 c-9 -16 -6 -19 18 -24 38 -8 49 -51 26 -101 -22 -46 -42
-63 -57 -48 -7 7 -25 12 -41 12 -67 0 -90 50 -41 89 29 23 21 27 -23 10 -35
-13 -93 -68 -93 -88 0 -30 -18 -44 -62 -50 -38 -5 -43 -9 -46 -35 l-4 -28 93
3 c61 3 93 0 96 -7 2 -7 -27 -13 -83 -17 -48 -3 -89 -8 -91 -11 -7 -7 18 -42
39 -55 16 -10 26 -8 54 8 19 12 39 21 45 21 18 0 8 -21 -16 -32 -37 -17 -31
-28 15 -28 54 0 100 20 132 58 14 17 42 37 61 46 20 8 44 27 53 43 10 15 21
30 25 33 10 8 39 103 34 109 -3 2 -11 -1 -17 -7 -7 -7 -21 -12 -32 -12 -18 1
-17 4 12 29 23 20 31 33 26 46 -7 17 -8 17 -20 0 -7 -9 -18 -14 -24 -10 -8 5
-8 11 1 21 19 23 3 44 -35 44 -24 0 -38 -6 -45 -19z" id="node17" class="node"></path>
<path d="M1856 2045 c-25 -20 -46 -39 -46 -42 0 -4 10 -17 22 -31 70 -73 -5
-483 -97 -532 -15 -8 -25 -32 -38 -89 -23 -101 -52 -132 -131 -139 -57 -5
-119 10 -150 37 -18 14 -18 12 2 -20 33 -55 27 -55 -25 -2 -57 58 -123 92
-194 100 -29 3 -81 16 -116 28 l-63 23 -60 -66 c-33 -36 -60 -68 -60 -71 0
-14 172 -191 218 -224 26 -19 74 -49 107 -66 33 -18 66 -39 74 -47 25 -24 4
-27 -28 -4 -36 25 -36 24 -16 -24 20 -47 0 -48 -22 -1 -17 37 -33 46 -33 20 0
-54 -69 -128 -131 -141 -49 -11 -94 -60 -137 -148 -51 -105 -65 -164 -57 -238
7 -69 -8 -78 -24 -14 -12 49 0 140 26 189 8 16 12 31 9 34 -13 13 -120 -11
-183 -41 -148 -72 -253 -212 -213 -286 14 -26 40 -22 124 20 60 30 86 33 50 5
-10 -9 -40 -27 -66 -40 -52 -27 -57 -38 -32 -73 34 -49 124 -14 139 55 4 15
13 46 20 68 7 22 21 68 31 103 9 34 21 65 25 68 16 10 9 -42 -17 -127 -47
-155 -17 -274 75 -299 73 -19 211 39 361 152 52 39 70 46 70 27 0 -5 4 -8 9
-5 5 3 22 1 39 -5 24 -8 44 -6 99 10 82 25 142 66 248 170 44 44 102 97 129
120 44 35 52 48 67 106 15 60 36 101 46 91 2 -2 -6 -36 -18 -76 -17 -56 -20
-85 -15 -133 3 -34 6 -72 6 -84 0 -12 5 -25 10 -28 6 -3 10 -15 10 -25 0 -18
45 -80 59 -80 3 0 5 46 3 102 -5 125 13 207 67 322 44 94 89 152 149 196 53
38 79 48 132 52 46 2 50 9 15 32 -58 38 -159 3 -221 -77 -22 -29 -51 -70 -63
-92 -36 -61 -80 -197 -92 -283 -11 -74 -22 -102 -35 -90 -9 10 16 155 40 232
24 74 65 162 97 208 25 35 24 54 -6 83 -56 57 -127 18 -139 -75 -4 -30 -11
-59 -15 -65 -4 -5 -15 -33 -24 -61 -42 -131 -177 -314 -308 -417 -54 -43 -149
-87 -187 -87 -37 0 -101 31 -131 64 -26 27 -40 110 -27 160 3 14 48 74 99 134
123 146 193 246 232 331 8 18 15 37 15 42 0 5 4 9 9 9 5 0 12 16 16 36 3 20
11 48 17 63 6 14 12 28 13 31 15 48 41 90 62 99 23 10 28 8 58 -23 l33 -35 12
43 c12 43 42 72 61 60 13 -8 4 26 -18 70 -12 22 -12 27 -1 24 7 -3 20 -20 30
-39 l16 -34 4 40 4 40 13 -30 c7 -18 10 -47 6 -75 -3 -25 -2 -56 2 -68 9 -23
11 -22 50 30 51 66 139 219 204 356 27 56 49 105 49 108 0 3 5 10 10 17 6 7
17 21 26 32 14 19 14 19 12 -11 -1 -17 3 -39 10 -47 8 -9 12 -34 10 -59 -3
-38 0 -43 19 -46 34 -5 61 30 68 90 4 29 7 58 8 63 1 6 37 17 80 26 87 18 113
36 123 87 6 27 4 32 -13 32 -11 0 -35 -8 -54 -17 -26 -14 -61 -18 -154 -18
l-120 -1 -82 -47 c-45 -26 -135 -87 -200 -136 -65 -49 -119 -88 -121 -86 -2 1
17 40 41 86 46 87 71 176 83 290 7 71 -8 139 -30 139 -7 0 -34 -16 -60 -35z" id="node18" class="node"></path>
<path d="M1622 2008 c-30 -30 -5 -37 29 -8 23 19 23 19 4 20 -12 0 -26 -5 -33
-12z" id="node19" class="node"></path>
<path d="M1798 1932 c-9 -20 -31 -67 -48 -104 -45 -98 -69 -190 -76 -293 -10
-146 -62 -235 -136 -235 -77 1 -182 94 -236 210 -20 41 -37 77 -38 79 -2 2
-35 -22 -74 -53 -68 -55 -71 -62 -48 -91 4 -5 22 -30 40 -54 25 -32 48 -49 92
-67 33 -13 68 -31 78 -41 20 -18 23 -11 7 18 -9 19 -9 19 10 10 11 -6 24 -17
28 -25 15 -26 111 -66 156 -66 85 0 123 53 138 193 11 96 29 141 29 72 l0 -38
24 22 c14 13 29 35 34 49 44 119 65 243 60 353 -4 94 -16 112 -40 61z" id="node20" class="node"></path>

<path d="M590 1781 c-14 -28 -12 -57 6 -94 9 -18 18 -34 20 -36 1 -1 25 5 53
14 56 18 56 25 8 82 -52 61 -69 67 -87 34z" id="node22" class="node"></path>
<path d="M1130 1760 c-52 -11 -118 -24 -147 -30 l-52 -11 -7 -57 c-4 -34 -2
-80 5 -113 6 -30 11 -64 11 -75 0 -22 42 -64 63 -64 7 0 31 19 54 43 32 33 39
46 33 62 -5 11 -9 38 -9 60 -1 65 35 107 129 152 43 21 79 41 80 46 0 11 -56
7 -160 -13z" id="node23" class="node"></path>
<path d="M2540 1760 c-14 -11 -50 -23 -80 -28 l-55 -8 41 -16 c64 -26 149 1
142 45 -4 28 -18 29 -48 7z" id="node24" class="node"></path>
<path d="M510 1735 c0 -2 14 -12 31 -21 30 -15 31 -15 25 1 -3 9 -6 19 -6 21
0 2 -11 4 -25 4 -14 0 -25 -2 -25 -5z" id="node25" class="node"></path>
<path d="M878 1733 c7 -3 16 -2 19 1 4 3 -2 6 -13 5 -11 0 -14 -3 -6 -6z" id="node26" class="node"></path>
<path d="M1195 1705 c-66 -39 -95 -79 -94 -128 0 -23 4 -50 8 -60 6 -16 9 -16
31 8 14 15 46 43 73 62 46 34 47 36 47 89 0 62 -5 64 -65 29z" id="node27" class="node"></path>
<path d="M2373 1704 c-10 -26 10 -68 40 -82 24 -12 32 -11 53 2 32 22 31 44
-3 56 -16 5 -41 16 -56 25 -25 13 -28 13 -34 -1z" id="node28" class="node"></path>
<path d="M860 1699 c-29 -8 -38 -17 -48 -49 -6 -22 -12 -50 -12 -62 0 -17 -7
-12 -30 25 -32 50 -37 52 -107 26 -27 -10 -27 -10 -11 -44 21 -47 -2 -48 -86
-5 -82 43 -102 44 -124 9 -12 -19 -10 -25 15 -57 18 -21 47 -42 74 -51 58 -21
69 -29 69 -50 0 -19 -38 -41 -73 -41 -12 0 -31 -8 -42 -16 -20 -15 -20 -16 10
-40 36 -29 54 -30 105 -4 51 26 63 25 108 -5 27 -18 50 -25 87 -25 56 0 68 -6
79 -35 6 -18 9 -16 34 15 15 19 39 48 55 64 34 36 34 42 -3 61 -25 13 -30 21
-30 54 0 21 -7 52 -15 67 -17 33 -20 110 -5 148 11 29 7 30 -50 15z m-110
-221 c0 -5 7 -25 16 -44 12 -25 24 -35 50 -40 44 -8 44 -24 1 -24 -44 0 -77
35 -84 91 -4 30 -3 40 5 35 7 -4 12 -12 12 -18z" id="node29" class="node"></path>
<path d="M765 1670 c-3 -5 0 -19 8 -30 13 -18 15 -19 21 -5 10 27 7 45 -8 45
-8 0 -18 -4 -21 -10z" id="node30" class="node"></path>
<path d="M595 1610 c-18 -6 -17 -8 12 -23 35 -19 52 -8 25 15 -11 10 -24 13
-37 8z" id="node31" class="node"></path>
<path d="M1455 1534 c-23 -25 -24 -25 -35 -5 -15 30 -44 26 -74 -10 l-26 -31
29 -36 c66 -83 163 -151 197 -138 8 3 21 21 29 41 53 125 -41 264 -120 179z" id="node32" class="node"></path>
<path d="M1063 1427 l-36 -33 36 -17 c19 -10 56 -20 82 -24 l47 -6 -38 57
c-21 31 -42 56 -46 56 -5 0 -25 -15 -45 -33z" id="node33" class="node"></path>
<path d="M1803 1218 c-11 -24 -25 -54 -30 -66 -8 -23 -9 -23 -33 15 -37 57
-61 55 -93 -9 -15 -29 -27 -61 -27 -71 0 -9 -4 -17 -9 -17 -5 0 -11 -17 -15
-38 -12 -79 -108 -235 -245 -401 -125 -150 -130 -158 -130 -217 -1 -46 3 -56
37 -94 35 -39 43 -43 95 -48 51 -4 66 0 122 28 86 43 212 166 279 270 16 25
37 56 46 70 9 14 22 41 30 60 7 19 17 40 21 45 16 22 59 221 59 274 -1 91 -50
241 -79 241 -4 0 -17 -19 -28 -42z" id="node34" class="node"></path>
<path d="M239 962 c62 -53 115 -65 305 -67 225 -4 277 -22 367 -133 24 -29 45
-52 48 -52 3 0 19 12 36 27 l29 26 -39 34 c-62 54 -95 78 -160 114 l-60 33
-230 1 c-207 0 -234 2 -270 19 -61 30 -63 30 -26 -2z" id="node35" class="node"></path>
<path d="M2260 909 c-123 -44 -231 -208 -271 -411 -20 -101 -20 -122 2 -200 8
-31 14 -38 35 -38 81 0 174 105 295 329 25 47 51 85 57 84 7 -2 12 2 12 7 0 6
8 10 17 10 9 0 35 20 58 44 47 48 50 72 19 124 -26 45 -94 48 -94 6 0 -9 -13
-29 -29 -45 -24 -24 -38 -29 -75 -29 -25 0 -46 5 -46 10 0 6 11 10 25 10 14 0
41 6 60 14 27 11 35 22 40 50 12 62 -9 69 -105 35z" id="node36" class="node"></path>
</g>
</svg>